# xmcd
#
# Track frame offsets: 
#        150
#        16272
#        30430
#        36547
#        55218
#        70748
#        84896
#        105579
#        128505
#        146989
#        167946
#        194450
#
# Disc length: 2820 seconds
#
# Revision: 0
# Processed by: cddbd v1.5.2PL0 Copyright (c) Steve Scherf et al.
# Submitted via: ExactAudioCopy v0.99pb5
#
DISCID=9f0b020c
DTITLE=Arlington Priest - The Memory Of Your Company
DYEAR=2006
DGENRE=Country
TTITLE0=Long Day
TTITLE1=Dustin
TTITLE2=Solomon
TTITLE3=Mexico
TTITLE4=Almost Home
TTITLE5=Sarah
TTITLE6=Petersburg
TTITLE7=The Stone
TTITLE8=Tonight
TTITLE9=Why Need Not Love
TTITLE10=The Memory Of Your Company
TTITLE11=With Me (Bonus Track)
EXTD=
EXTT0=
EXTT1=
EXTT2=
EXTT3=
EXTT4=
EXTT5=
EXTT6=
EXTT7=
EXTT8=
EXTT9=
EXTT10=
EXTT11=
PLAYORDER=
